<svg width="40" height="40" viewBox="0 0 40 40" fill="none" xmlns="http://www.w3.org/2000/svg">
<path d="M14.9999 36.6667C15.9204 36.6667 16.6666 35.9205 16.6666 35C16.6666 34.0796 15.9204 33.3334 14.9999 33.3334C14.0794 33.3334 13.3333 34.0796 13.3333 35C13.3333 35.9205 14.0794 36.6667 14.9999 36.6667Z" stroke="#CDA861" stroke-width="3" stroke-linecap="round" stroke-linejoin="round"/>
<path d="M33.3334 36.6667C34.2539 36.6667 35.0001 35.9205 35.0001 35C35.0001 34.0796 34.2539 33.3334 33.3334 33.3334C32.4129 33.3334 31.6667 34.0796 31.6667 35C31.6667 35.9205 32.4129 36.6667 33.3334 36.6667Z" stroke="#CDA861" stroke-width="3" stroke-linecap="round" stroke-linejoin="round"/>
<path d="M1.66675 1.66663H8.33341L12.8001 23.9833C12.9525 24.7506 13.3699 25.4399 13.9793 25.9305C14.5887 26.421 15.3512 26.6816 16.1334 26.6666H32.3334C33.1156 26.6816 33.8781 26.421 34.4875 25.9305C35.0969 25.4399 35.5143 24.7506 35.6667 23.9833L38.3334 9.99996H10.0001" stroke="#CDA861" stroke-width="3" stroke-linecap="round" stroke-linejoin="round"/>
</svg>
